<svg xmlns="http://www.w3.org/2000/svg" viewBox="0 0 89.61 88"><title>Ресурс 1</title><g id="Слой_2" data-name="Слой 2"><g id="All_glyphs" data-name="All glyphs"><path d="M4.75,21.94c0,7.47,2.5,12.86,7.42,16a21.13,21.13,0,0,0,11.12,3c.59,0,1.07,0,1.4,0a14.35,14.35,0,0,0,2.95,10h-.17C21,50.89,0,52.23,0,69.52,0,87.1,19.31,88,23.18,88h1.27a35.72,35.72,0,0,0,14.88-3.21C47.07,81,51,74.49,51,65.36c0-8.82-6-14.07-10.35-17.91-2.67-2.34-5-4.36-5-6.33s1.68-3.5,3.81-5.41c3.45-3.08,6.69-7.46,6.69-15.75,0-7.29-.94-12.18-6.76-15.28A20.78,20.78,0,0,1,43.23,4C46.38,3.56,51,3.07,51,.5V0H28C27.78,0,4.75.86,4.75,21.94ZM41.87,67c.44,7-5.58,12.22-14.61,12.88S10.54,76.43,10.1,69.4a11.58,11.58,0,0,1,4.17-9.31,19,19,0,0,1,11.4-4.64c.52,0,1-.06,1.54-.06C35.71,55.39,41.46,60.38,41.87,67Zm-6-49.88c2.25,7.93-1.15,16.23-6.58,17.76a7.29,7.29,0,0,1-1.92.26c-5,0-9.9-5-11.73-12a17.26,17.26,0,0,1,.24-10.56C17,9.41,19.09,7.23,21.69,6.5a7.29,7.29,0,0,1,1.92-.26C29.62,6.24,33.48,8.72,35.87,17.13ZM74.61,34.41v-15h-9.5v15h-15v9.5h15v15h9.5v-15h15v-9.5Z"/></g></g></svg>