<svg xmlns="http://www.w3.org/2000/svg" viewBox="0 0 90 88.74"><title>Ресурс 1</title><g id="Слой_2" data-name="Слой 2"><g id="All_glyphs" data-name="All glyphs"><path d="M20.38,9.62c0,5.32-3.93,9.62-10.38,9.62-6.08,0-10-4.3-10-9.62S4.05,0,10.25,0,20.25,4.18,20.38,9.62ZM.51,88.74V26.84H19.75v61.9Z"/><path d="M31.26,46.58c0-7.72-.25-14.17-.5-19.74h16.7l.89,8.61h.38a22.22,22.22,0,0,1,19.12-10C80.51,25.44,90,33.93,90,52.15V88.74H70.76V54.43C70.76,46.46,68,41,61,41c-5.32,0-8.48,3.67-9.87,7.21A13.78,13.78,0,0,0,50.5,53v35.7H31.26Z"/></g></g></svg>