<svg xmlns="http://www.w3.org/2000/svg" viewBox="0 0 92 74.77"><title>Ресурс 1</title><g id="Слой_2" data-name="Слой 2"><g id="All_glyphs" data-name="All glyphs"><path d="M92,8.85a37.59,37.59,0,0,1-10.84,3,18.89,18.89,0,0,0,8.3-10.44A38,38,0,0,1,77.47,6,18.89,18.89,0,0,0,45.31,23.17,53.57,53.57,0,0,1,6.4,3.45a18.91,18.91,0,0,0,5.84,25.2A18.58,18.58,0,0,1,3.7,26.29a1.93,1.93,0,0,0,0,.24A18.89,18.89,0,0,0,18.83,45a18.9,18.9,0,0,1-8.52.32A18.9,18.9,0,0,0,27.94,58.47,37.87,37.87,0,0,1,4.5,66.55,37.24,37.24,0,0,1,0,66.28a53.37,53.37,0,0,0,28.93,8.49c34.72,0,53.71-28.77,53.71-53.71,0-.81,0-1.63-.06-2.44A38.22,38.22,0,0,0,92,8.85Z"/></g></g></svg>